<svg width="75" height="48" viewBox="0 0 75 48" version="1.1" xmlns="http://www.w3.org/2000/svg" xmlns:xlink="http://www.w3.org/1999/xlink">
<title>Frame</title>
<desc>Created using Figma</desc>
<g id="Canvas" transform="translate(117 116)">
<clipPath id="clip-0" clip-rule="evenodd">
<path d="M -117 -116L -42 -116L -42 -68L -117 -68L -117 -116Z" fill="#FFFFFF"/>
</clipPath>
<g id="Frame" clip-path="url(#clip-0)">
<g id="MM" filter="url(#filter0_d)">
<use xlink:href="#path0_fill" transform="translate(-109 -114)" fill="#E83A30"/>
</g>
</g>
</g>
<defs>
<filter id="filter0_d" filterUnits="userSpaceOnUse" x="-112" y="-104" width="62" height="28" color-interpolation-filters="sRGB">
<feFlood flood-opacity="0" result="BackgroundImageFix"/>
<feColorMatrix in="SourceAlpha" type="matrix" values="0 0 0 0 0 0 0 0 0 0 0 0 0 0 0 0 0 0 255 0"/>
<feOffset dx="-3" dy="4"/>
<feColorMatrix type="matrix" values="0 0 0 0 0.101961 0 0 0 0 0.0235294 0 0 0 0 0.0196078 0 0 0 1 0"/>
<feBlend mode="normal" in2="BackgroundImageFix" result="effect1_dropShadow"/>
<feBlend mode="normal" in="SourceGraphic" in2="effect1_dropShadow" result="shape"/>
</filter>
<path id="path0_fill" d="M 2.63672 33.4102C 2.44141 33.4102 2.13867 33.3809 1.72852 33.3223C 1.41602 32.9902 1.13281 32.541 0.878906 31.9746C 0.644531 31.3887 0.458984 30.7734 0.322266 30.1289C 0.205078 29.4648 0.146484 28.8105 0.146484 28.166C 0.166016 27.502 0.283203 26.916 0.498047 26.4082C 0.498047 26.3887 0.585938 26.1543 0.761719 25.7051C 0.957031 25.2559 1.20117 24.6895 1.49414 24.0059C 1.78711 23.3027 2.11914 22.5312 2.49023 21.6914C 2.86133 20.832 3.23242 19.9922 3.60352 19.1719C 3.97461 18.3516 4.32617 17.6094 4.6582 16.9453C 5.00977 16.2617 5.3125 15.7344 5.56641 15.3633C 5.74219 15.0898 5.89844 14.8262 6.03516 14.5723C 6.19141 14.3184 6.33789 14.084 6.47461 13.8691C 6.68945 13.5176 6.88477 13.1953 7.06055 12.9023C 7.25586 12.5898 7.46094 12.3164 7.67578 12.082C 7.91016 11.8281 8.16406 11.6133 8.4375 11.4375C 8.71094 11.2422 9.04297 11.0762 9.43359 10.9395C 9.66797 11.0371 9.87305 11.1445 10.0488 11.2617C 10.2246 11.3594 10.3809 11.4863 10.5176 11.6426L 10.6055 12.0527C 10.6445 12.1895 10.7031 12.2871 10.7812 12.3457C 10.8789 12.3848 10.957 12.4043 11.0156 12.4043C 11.2695 12.4629 11.4844 12.5313 11.6602 12.6094C 11.8555 12.668 12.0605 12.707 12.2754 12.7266C 12.3535 12.8438 12.4219 12.9609 12.4805 13.0781C 12.5586 13.1953 12.6367 13.3027 12.7148 13.4004C 13.1055 13.9668 13.4277 14.5137 13.6816 15.041C 13.9355 15.5684 13.9355 16.1445 13.6816 16.7695L 13.7109 17.0918C 13.8086 17.2285 13.8574 17.3555 13.8574 17.4727C 13.8574 17.5898 13.8379 17.7559 13.7988 17.9707C 13.7793 18.127 13.7598 18.3027 13.7402 18.498C 13.7402 18.6738 13.7695 18.8691 13.8281 19.084L 14.0332 19.3184C 14.3457 19.4746 14.6484 19.5527 14.9414 19.5527C 15.332 19.5527 15.6836 19.4648 15.9961 19.2891C 16.3086 19.1133 16.6016 18.9375 16.875 18.7617C 17.0898 18.6055 17.2852 18.4785 17.4609 18.3809C 17.6562 18.2832 17.8418 18.2148 18.0176 18.1758C 18.4277 17.7852 18.7988 17.4434 19.1309 17.1504C 19.4824 16.8379 19.8438 16.5254 20.2148 16.2129C 20.918 15.6465 21.6016 15.041 22.2656 14.3965C 22.9297 13.7324 23.457 12.9121 23.8477 11.9355C 24.0625 11.7988 24.3066 11.7305 24.5801 11.7305C 24.8535 11.7305 25.127 11.7891 25.4004 11.9062C 25.6738 12.0039 25.9473 12.1211 26.2207 12.2578C 26.2793 12.2969 26.3281 12.3262 26.3672 12.3457C 26.4258 12.3652 26.4844 12.3945 26.543 12.4336C 26.543 12.6484 26.6309 12.8438 26.8066 13.0195C 26.9043 13.0977 26.9727 13.1465 27.0117 13.166C 27.0508 13.1855 27.0898 13.2051 27.1289 13.2246C 27.2852 13.3223 27.4121 13.4102 27.5098 13.4883C 27.627 13.5664 27.7148 13.6738 27.7734 13.8105C 27.9492 14.3379 28.2422 14.748 28.6523 15.041C 28.6133 15.2559 28.623 15.4707 28.6816 15.6855C 28.7402 15.8809 28.8086 16.0762 28.8867 16.2715C 28.9258 16.3496 28.9551 16.4277 28.9746 16.5059C 28.9941 16.5645 29.0234 16.6426 29.0625 16.7402L 28.418 16.6816L 28.5059 17.3262C 28.5645 17.6582 28.5352 18.0293 28.418 18.4395C 28.3203 18.8496 28.2031 19.1719 28.0664 19.4062C 28.1055 19.9922 28.125 20.4609 28.125 20.8125C 28.125 21.1445 28.1055 21.457 28.0664 21.75C 28.0273 22.043 27.959 22.3262 27.8613 22.5996C 27.7832 22.8535 27.6758 23.127 27.5391 23.4199C 27.6172 24.9043 27.4414 26.2617 27.0117 27.4922C 26.6016 28.7227 26.1523 29.875 25.6641 30.9492C 25.6055 31.0859 25.5469 31.2129 25.4883 31.3301C 25.4297 31.4473 25.3809 31.5645 25.3418 31.6816C 25.127 31.7402 24.9316 31.8086 24.7559 31.8867C 24.5801 31.9648 24.4141 32.0527 24.2578 32.1504C 24.043 32.2871 23.8281 32.4043 23.6133 32.502C 23.3984 32.5801 23.1738 32.6191 22.9395 32.6191C 22.002 31.9355 21.5137 30.7539 21.4746 29.0742C 21.4551 27.3945 21.8164 25.2559 22.5586 22.6582C 22.6953 22.5605 22.7539 22.4141 22.7344 22.2188L 22.7344 21.8965L 22.4414 21.8672C 22.3438 21.8672 22.2559 21.877 22.1777 21.8965C 22.0996 21.916 22.041 22.0039 22.002 22.1602C 21.377 22.6094 20.6934 23.0781 19.9512 23.5664C 19.2285 24.0352 18.4766 24.4746 17.6953 24.8848C 16.9141 25.2754 16.1133 25.6074 15.293 25.8809C 14.4922 26.1348 13.7109 26.2617 12.9492 26.2617C 10.9961 26.2617 9.52148 25.2656 8.52539 23.2734L 8.26172 22.7461L 7.96875 23.2148C 7.91016 23.3125 7.80273 23.5078 7.64648 23.8008C 7.50977 24.0742 7.36328 24.3965 7.20703 24.7676C 7.07031 25.1387 6.94336 25.5195 6.82617 25.9102C 6.72852 26.3008 6.69922 26.6426 6.73828 26.9355C 6.50391 27.1504 6.26953 27.3945 6.03516 27.668C 5.82031 27.9414 5.66406 28.2539 5.56641 28.6055C 5.52734 28.7031 5.51758 28.8008 5.53711 28.8984C 5.55664 28.9766 5.58594 29.0645 5.625 29.1621C 5.60547 29.2988 5.56641 29.3965 5.50781 29.4551C 5.44922 29.5137 5.38086 29.5723 5.30273 29.6309C 5.20508 29.7285 5.10742 29.8359 5.00977 29.9531C 4.91211 30.0508 4.82422 30.168 4.74609 30.3047C 4.70703 30.4219 4.67773 30.5488 4.6582 30.6855C 4.63867 30.8027 4.61914 30.9102 4.59961 31.0078C 4.59961 31.2227 4.57031 31.3691 4.51172 31.4473C 4.31641 31.8574 4.14062 32.1992 3.98438 32.4727C 3.84766 32.7266 3.71094 32.9219 3.57422 33.0586C 3.4375 33.1953 3.29102 33.2832 3.13477 33.3223C 2.99805 33.3809 2.83203 33.4102 2.63672 33.4102ZM 31.8457 33.4102C 31.6504 33.4102 31.3477 33.3809 30.9375 33.3223C 30.625 32.9902 30.3418 32.541 30.0879 31.9746C 29.8535 31.3887 29.668 30.7734 29.5312 30.1289C 29.4141 29.4648 29.3555 28.8105 29.3555 28.166C 29.375 27.502 29.4922 26.916 29.707 26.4082C 29.707 26.3887 29.7949 26.1543 29.9707 25.7051C 30.166 25.2559 30.4102 24.6895 30.7031 24.0059C 30.9961 23.3027 31.3281 22.5312 31.6992 21.6914C 32.0703 20.832 32.4414 19.9922 32.8125 19.1719C 33.1836 18.3516 33.5352 17.6094 33.8672 16.9453C 34.2188 16.2617 34.5215 15.7344 34.7754 15.3633C 34.9512 15.0898 35.1074 14.8262 35.2441 14.5723C 35.4004 14.3184 35.5469 14.084 35.6836 13.8691C 35.8984 13.5176 36.0938 13.1953 36.2695 12.9023C 36.4648 12.5898 36.6699 12.3164 36.8848 12.082C 37.1191 11.8281 37.373 11.6133 37.6465 11.4375C 37.9199 11.2422 38.252 11.0762 38.6426 10.9395C 38.877 11.0371 39.082 11.1445 39.2578 11.2617C 39.4336 11.3594 39.5898 11.4863 39.7266 11.6426L 39.8145 12.0527C 39.8535 12.1895 39.9121 12.2871 39.9902 12.3457C 40.0879 12.3848 40.166 12.4043 40.2246 12.4043C 40.4785 12.4629 40.6934 12.5313 40.8691 12.6094C 41.0645 12.668 41.2695 12.707 41.4844 12.7266C 41.5625 12.8438 41.6309 12.9609 41.6895 13.0781C 41.7676 13.1953 41.8457 13.3027 41.9238 13.4004C 42.3145 13.9668 42.6367 14.5137 42.8906 15.041C 43.1445 15.5684 43.1445 16.1445 42.8906 16.7695L 42.9199 17.0918C 43.0176 17.2285 43.0664 17.3555 43.0664 17.4727C 43.0664 17.5898 43.0469 17.7559 43.0078 17.9707C 42.9883 18.127 42.9688 18.3027 42.9492 18.498C 42.9492 18.6738 42.9785 18.8691 43.0371 19.084L 43.2422 19.3184C 43.5547 19.4746 43.8574 19.5527 44.1504 19.5527C 44.541 19.5527 44.8926 19.4648 45.2051 19.2891C 45.5176 19.1133 45.8105 18.9375 46.084 18.7617C 46.2988 18.6055 46.4941 18.4785 46.6699 18.3809C 46.8652 18.2832 47.0508 18.2148 47.2266 18.1758C 47.6367 17.7852 48.0078 17.4434 48.3398 17.1504C 48.6914 16.8379 49.0527 16.5254 49.4238 16.2129C 50.127 15.6465 50.8105 15.041 51.4746 14.3965C 52.1387 13.7324 52.666 12.9121 53.0566 11.9355C 53.2715 11.7988 53.5156 11.7305 53.7891 11.7305C 54.0625 11.7305 54.3359 11.7891 54.6094 11.9062C 54.8828 12.0039 55.1562 12.1211 55.4297 12.2578C 55.4883 12.2969 55.5371 12.3262 55.5762 12.3457C 55.6348 12.3652 55.6934 12.3945 55.752 12.4336C 55.752 12.6484 55.8398 12.8438 56.0156 13.0195C 56.1133 13.0977 56.1816 13.1465 56.2207 13.166C 56.2598 13.1855 56.2988 13.2051 56.3379 13.2246C 56.4941 13.3223 56.6211 13.4102 56.7188 13.4883C 56.8359 13.5664 56.9238 13.6738 56.9824 13.8105C 57.1582 14.3379 57.4512 14.748 57.8613 15.041C 57.8223 15.2559 57.832 15.4707 57.8906 15.6855C 57.9492 15.8809 58.0176 16.0762 58.0957 16.2715C 58.1348 16.3496 58.1641 16.4277 58.1836 16.5059C 58.2031 16.5645 58.2324 16.6426 58.2715 16.7402L 57.627 16.6816L 57.7148 17.3262C 57.7734 17.6582 57.7441 18.0293 57.627 18.4395C 57.5293 18.8496 57.4121 19.1719 57.2754 19.4062C 57.3145 19.9922 57.334 20.4609 57.334 20.8125C 57.334 21.1445 57.3145 21.457 57.2754 21.75C 57.2363 22.043 57.168 22.3262 57.0703 22.5996C 56.9922 22.8535 56.8848 23.127 56.748 23.4199C 56.8262 24.9043 56.6504 26.2617 56.2207 27.4922C 55.8105 28.7227 55.3613 29.875 54.873 30.9492C 54.8145 31.0859 54.7559 31.2129 54.6973 31.3301C 54.6387 31.4473 54.5898 31.5645 54.5508 31.6816C 54.3359 31.7402 54.1406 31.8086 53.9648 31.8867C 53.7891 31.9648 53.623 32.0527 53.4668 32.1504C 53.252 32.2871 53.0371 32.4043 52.8223 32.502C 52.6074 32.5801 52.3828 32.6191 52.1484 32.6191C 51.2109 31.9355 50.7227 30.7539 50.6836 29.0742C 50.6641 27.3945 51.0254 25.2559 51.7676 22.6582C 51.9043 22.5605 51.9629 22.4141 51.9434 22.2188L 51.9434 21.8965L 51.6504 21.8672C 51.5527 21.8672 51.4648 21.877 51.3867 21.8965C 51.3086 21.916 51.25 22.0039 51.2109 22.1602C 50.5859 22.6094 49.9023 23.0781 49.1602 23.5664C 48.4375 24.0352 47.6855 24.4746 46.9043 24.8848C 46.123 25.2754 45.3223 25.6074 44.502 25.8809C 43.7012 26.1348 42.9199 26.2617 42.1582 26.2617C 40.2051 26.2617 38.7305 25.2656 37.7344 23.2734L 37.4707 22.7461L 37.1777 23.2148C 37.1191 23.3125 37.0117 23.5078 36.8555 23.8008C 36.7188 24.0742 36.5723 24.3965 36.416 24.7676C 36.2793 25.1387 36.1523 25.5195 36.0352 25.9102C 35.9375 26.3008 35.9082 26.6426 35.9473 26.9355C 35.7129 27.1504 35.4785 27.3945 35.2441 27.668C 35.0293 27.9414 34.873 28.2539 34.7754 28.6055C 34.7363 28.7031 34.7266 28.8008 34.7461 28.8984C 34.7656 28.9766 34.7949 29.0645 34.834 29.1621C 34.8145 29.2988 34.7754 29.3965 34.7168 29.4551C 34.6582 29.5137 34.5898 29.5723 34.5117 29.6309C 34.4141 29.7285 34.3164 29.8359 34.2188 29.9531C 34.1211 30.0508 34.0332 30.168 33.9551 30.3047C 33.916 30.4219 33.8867 30.5488 33.8672 30.6855C 33.8477 30.8027 33.8281 30.9102 33.8086 31.0078C 33.8086 31.2227 33.7793 31.3691 33.7207 31.4473C 33.5254 31.8574 33.3496 32.1992 33.1934 32.4727C 33.0566 32.7266 32.9199 32.9219 32.7832 33.0586C 32.6465 33.1953 32.5 33.2832 32.3438 33.3223C 32.207 33.3809 32.041 33.4102 31.8457 33.4102Z"/>
</defs>
</svg>
