<svg version="1" xmlns="http://www.w3.org/2000/svg" width="346.667" height="346.667" viewBox="0 0 260.000000 260.000000"><path d="M88.7 54c-2.5 1.7-5.7 4.5-7.1 6.3-3.2 4.2-12.7 18.5-14.5 22-.8 1.5-1.8 2.7-2.3 2.7-.4 0-.8.4-.8.9 0 .8-2.4 5.2-7.5 13.6-5.3 8.7-13.1 25.6-30.7 66.5-1 2.5-2.3 5.4-2.8 6.5-3.7 8.6-4.5 12.5-4.4 22 0 11.1 2.8 22.8 7.2 30 3.3 5.5 4.9 6.5 10.1 6.5 5.5 0 8.7-2.4 12-8.8 1.2-2.4 3.1-5.2 4.1-6.2 1.7-1.7 8-13.2 8-14.5-.1-4.1.5-5.7 3.4-9.2 2.4-2.7 3.4-4.9 3.4-6.9-.1-3.5 2.3-8.4 5.8-11.9 1.6-1.6 2.8-4.1 3-6.5.3-2.1 1.3-6.2 2.3-9.1l1.7-5.2 3.1 5.4c3.1 5.4 11.1 14.4 12 13.5.2-.2 1.4.5 2.5 1.6s2.6 1.7 3.4 1.4c.8-.3 1.4-.1 1.4.4 0 3.4 29.4 2.4 31.6-1.2.3-.4 1.2-.8 2-.8 1.4 0 19-8.3 24-11.3 7.6-4.5 18.4-12.1 18.4-12.9 0-.5.4-.7.9-.4.4.3 1.8-.5 3-1.8 1.3-1.4 3-2.2 4.1-1.9 2 .5 2 1.3.3 5.8-1.6 4.1-5.1 19.3-6.8 29.5-1.6 10-1.2 26.7.7 32.8 1.8 5.6 7.5 12.2 10.6 12.2 2.4 0 8.4-2.8 9-4.2.2-.4 1.8-1 3.6-1.4 2.9-.5 3.7-1.3 5.6-6 1.3-2.9 3.3-6 4.4-6.8 2.3-1.4 6.3-10 11.9-25.6 4.3-11.6 5.7-18.3 6.1-28.6.2-4.4 1.2-10.2 2.1-12.9 1.2-3.3 1.9-8.5 2.1-15 .1-5.7.9-12.5 1.9-15.8.9-3.2 1.5-7.7 1.3-10-.3-3.7 0-4.2 1.9-4.5 2.1-.3 2.1-.5.8-4.3-.8-2.2-1.6-5.1-1.8-6.4-.1-1.3-1.2-3.5-2.4-4.7-1.1-1.3-2.8-3.8-3.7-5.6-.9-1.8-3.2-4.2-5.2-5.5-1.9-1.2-3.7-3.2-4-4.4-.4-1.4-2.3-2.8-5.7-4.2-10.5-4.2-13.4-3.6-16.8 3.2-3.8 7.3-13 17.8-23.3 26.2-6.5 5.3-8.4 7-13.1 11.4-2.2 2-6.2 5-9 6.6-15.1 8.7-19.3 9.9-25 7.3-2.7-1.2-2.7-1.2-3.1-10.8-.2-3.6-.3-7.2-.3-8-.1-.8.2-3.2.5-5.2.8-4.9-.8-9.3-6.6-18.2-4.7-7.2-5.1-7.5-10.8-9.1-5.1-1.4-6-2.1-7-4.9-1.2-3.3-5.7-6.6-8.9-6.6-1.1 0-4 1.4-6.6 3z"/></svg>